<?xml version="1.0" encoding="UTF-8" standalone="no"?>
<svg
   xmlns:dc="http://purl.org/dc/elements/1.1/"
   xmlns:cc="http://creativecommons.org/ns#"
   xmlns:rdf="http://www.w3.org/1999/02/22-rdf-syntax-ns#"
   xmlns:svg="http://www.w3.org/2000/svg"
   xmlns="http://www.w3.org/2000/svg"
   xmlns:sodipodi="http://sodipodi.sourceforge.net/DTD/sodipodi-0.dtd"
   xmlns:inkscape="http://www.inkscape.org/namespaces/inkscape"
   enable-background="new 0 0 48 48"
   height="48px"
   version="1.1"
   viewBox="0 0 48 48"
   width="48px"
   xml:space="preserve"
   id="svg3012"
   inkscape:version="0.48.5 r10040"
   sodipodi:docname="database.svg"><metadata
     id="metadata3037"><rdf:RDF><cc:Work
         rdf:about=""><dc:format>image/svg+xml</dc:format><dc:type
           rdf:resource="http://purl.org/dc/dcmitype/StillImage" /><dc:title></dc:title></cc:Work></rdf:RDF></metadata><defs
     id="defs3035" /><sodipodi:namedview
     pagecolor="#ffffff"
     bordercolor="#666666"
     borderopacity="1"
     objecttolerance="10"
     gridtolerance="10"
     guidetolerance="10"
     inkscape:pageopacity="0"
     inkscape:pageshadow="2"
     inkscape:window-width="1089"
     inkscape:window-height="480"
     id="namedview3033"
     showgrid="false"
     inkscape:zoom="4.9166667"
     inkscape:cx="-10.881356"
     inkscape:cy="24"
     inkscape:window-x="800"
     inkscape:window-y="32"
     inkscape:window-maximized="0"
     inkscape:current-layer="Expanded" /><g
     id="Expanded"><g
       id="g3015"
       style="fill:#800066;fill-opacity:1"><g
         id="g3017"
         style="fill:#800066;fill-opacity:1"><path
           d="M24,20c-11.215,0-20-3.953-20-9s8.785-9,20-9s20,3.953,20,9S35.215,20,24,20z M24,4C15.486,4,6,6.875,6,11s9.486,7,18,7     s18-2.875,18-7S32.514,4,24,4z"
           id="path3019"
           style="fill:#800066;fill-opacity:1" /></g><g
         id="g3021"
         style="fill:#800066;fill-opacity:1"><path
           d="M24,28c-11.215,0-20-3.953-20-9v-8c0-0.553,0.447-1,1-1s1,0.447,1,1v8c0,4.125,9.486,7,18,7s18-2.875,18-7v-8     c0-0.553,0.447-1,1-1s1,0.447,1,1v8C44,24.047,35.215,28,24,28z"
           id="path3023"
           style="fill:#800066;fill-opacity:1" /></g><g
         id="g3025"
         style="fill:#800066;fill-opacity:1"><path
           d="M24,37c-11.215,0-20-3.953-20-9v-9c0-0.553,0.447-1,1-1s1,0.447,1,1v9c0,4.125,9.486,7,18,7s18-2.875,18-7v-9     c0-0.553,0.447-1,1-1s1,0.447,1,1v9C44,33.047,35.215,37,24,37z"
           id="path3027"
           style="fill:#800066;fill-opacity:1" /></g><g
         id="g3029"
         style="fill:#800066;fill-opacity:1"><path
           d="M24,46c-11.215,0-20-3.953-20-9v-9c0-0.553,0.447-1,1-1s1,0.447,1,1v9c0,4.125,9.486,7,18,7s18-2.875,18-7v-9     c0-0.553,0.447-1,1-1s1,0.447,1,1v9C44,42.047,35.215,46,24,46z"
           id="path3031"
           style="fill:#800066;fill-opacity:1" /></g></g></g></svg>